<?xml version="1.0" encoding="UTF-8"?>
<svg width="122px" height="122px" viewBox="0 0 122 122" version="1.1" xmlns="http://www.w3.org/2000/svg" xmlns:xlink="http://www.w3.org/1999/xlink">
    <!-- Generator: Sketch 47 (45396) - http://www.bohemiancoding.com/sketch -->
    <title>先锋</title>
    <desc>Created with Sketch.</desc>
    <defs></defs>
    <g id="Page-1" stroke="none" stroke-width="1" fill="none" fill-rule="evenodd">
        <g id="Group-8" transform="translate(1.000000, 1.000000)">
            <circle id="Oval-2" stroke="#0078FF" stroke-width="0.8" cx="60" cy="60" r="60"></circle>
            <g id="形状-9" transform="translate(35.200000, 35.200000)" fill="#0078FF">
                <path d="M47.78,1.936 C45.5229709,0.677778047 42.9840211,0.0117337527 40.4,0 C31.5688,0 23.0024,8.0224 18.4304,15.9728 L16.0984,19.9664 L8.648,19.9664 C8.30596726,19.9697931 7.97987197,20.1114858 7.744,20.3592 L7.576,20.5 L0.3952,27.7416 C0.149218365,27.9751973 0.00907604912,28.2989639 0.00711348953,28.6381848 C0.00515092995,28.9774057 0.141537691,29.3027722 0.3848,29.5392 L4.8184,33.996 C5.0908476,34.2653503 5.46682462,34.4031307 5.8488,34.3736 L9.6952,34.14 L12.0504,36.5016 L10.5896,37.9416 C10.3345802,38.1824064 10.1918698,38.5188782 10.196,38.8696 C10.1962568,39.1979051 10.3337394,39.5111566 10.5752,39.7336 C10.8074217,39.9849239 11.1322353,40.1304719 11.4743671,40.136514 C11.8164989,40.142556 12.1462491,40.0085677 12.3872,39.7656 L13.8496,38.3176 L16.2,40.6536 L15.9672,44.4856 C15.9327482,44.8776598 16.0692236,45.2655068 16.3416,45.5496 L20.7648,49.9496 C20.9987788,50.2019563 21.3250756,50.3486658 21.6691293,50.3562042 C22.013183,50.3637426 22.3455925,50.2314658 22.5904,49.9896 L29.9504,42.6216 C30.1951692,42.3810218 30.3339441,42.0527991 30.336,41.7096 L30.336,34.2096 L34.32,31.9176 C43.496,26.6136 54.8,14.3848 48.312,2.4352 C48.1811381,2.22533262 47.9977596,2.05326014 47.78,1.936 Z M9.4064,31.5632 L6.2392,31.7784 L3.108,28.6584 L9.188,22.5592 L14.608,22.5592 L9.4064,31.5632 Z M27.76,41.176 L21.692,47.28 L18.5656,44.128 L18.7648,40.936 L27.76,35.736 L27.76,41.176 L27.76,41.176 Z M41.8472,22.6048 C39.2839371,25.3921785 36.317711,27.7799905 33.0472,29.6888 L17.7392,38.544 L15.6592,36.5016 L23.8672,28.2872 C24.356903,27.7779821 24.3547798,26.9722301 23.8624,26.4656 C23.3399021,25.9957351 22.5454843,26.0012831 22.0296,26.4784 L13.8528,34.6768 L11.7808,32.6016 L20.6288,17.2472 C22.5427339,13.9736962 24.9280251,10.999697 27.708,8.4208 L28.2016,7.9696 L42.3048,22.1096 L41.8472,22.6048 Z M43.4472,20.7376 L42.9608,21.3696 L28.9608,7.3176 L29.5888,6.8304 C32.0688,4.9104 35.9616,2.612 40.4096,2.612 C42.3534742,2.61090147 44.2708545,3.06285539 46.0096,3.932 L46.2224,4.0368 L46.3272,4.2496 C48.8,9.2616 47.7752,15.12 43.452,20.7376 L43.4472,20.7376 Z" id="形状_9"></path>
            </g>
        </g>
    </g>
</svg>